<svg version="1.2" xmlns="http://www.w3.org/2000/svg" width="233" height="11"><style>.a{fill:#71bf8d}</style><path fill-rule="evenodd" class="a" d="M32.2.5c.7 1.5 1.2 3.2 1.5 4.8.3 1.4.3 2.8.3 4.3l.2-.3.3-.2.2-.3.3-.2v-.1h.1a9.9 9.9 0 014.4-1.7h.5l-4 3h.5l.3-.1v.2h.5l.4-.4h.3v-.1h.6l-.3.5.2.4.6.2c.2-.1.5-.2.5-.6 0-.7-.2-1.7.5-2.2.3-.3.6-.3 1-.3l-.6 1.7-.1.5.5.6.1-.5.2.3.4-.3-.6-.3h.5l.4.1h.5l.4.1-.5-1.6c.3 0 .7.1 1 .4.3.2.5.6.5 1h.2l1.5-1c0 .6-.2 1.2-.6 1.7l.5.2.7-.6h.2l-.4-.3a5 5 0 011.7.3l.2-.3v.2l.2-.4-4.3-3q.7 0 1.3.2l1.3.3 1.2.5 1.1.7.3.2L50.5 6l-.1.4-1.1 2.1.5.6c0-.6 0-1.2.2-1.8l1.1 3.5.2-.2v-.5l-.3-.7.3.3.2-4.6.6 4.7c.2-.1.3-.3.5-.3l-.1.3.1-.1v-.2h.1v-3l1 4.4v.2l.2-.2h-.2l.4-.9v-.3l-.1-.2h.1l.8-1.1.3-.2-.7 1.5.3.1h.2l-.2-.2.2.1.2-.2h.2l.2-.1v.2l.5.3.2-.1.2-.2.2-.1.2-.1-.4.9.5.5 1.3-4.1c.2.5.2 1 .2 1.5.6-.1 1.2.1 1.7.4.7.2 1.3 1 2 1 .4-.1.4.3.4.6 0 .4.4.3.7.3L63 9.4l.6.8.2-1.2.4-1.2.5-1.1.7-1-1 5.4h.4v-.5l.1-.5.1-.4.1-.5.2-.9.4-.9.4-.9.6-.8-.8 3.8.2.1-.2 1 .9-.3-.4-.4.5.3 1-.4-.8-4.1.6.8.5.8.3 1 .3.9v.5l1.4-.3h.7l-1.9.9v.8h1.8v-.3c0-.5.2-1 .6-1.3h.5l.1-.3-1.8-3.5q.8.1 1.2.6l1.2 1.5 1.1-1.5 1.2-.6-1.7 3.5.2.6.5.4.1.1-.5-.9 1 .2.5.4.1.2.7-.3-1-.5h.4l.4.1h.4l.4.1.3-.2v.3h.6c.3.1.7.3 1.1.3l.1-.2h.2l-.6-1.2a15 15 0 01-.3-5.6l1.5 6.6.2.7.3.2.6-.8-.1.7.5-.4v-.1l.2-.4.1.3.4-.2-.3.4.2.4.7-.3v-.3l.2.2h.2l.3-.3.3-.2.4-.3.3-.2c-.3-.7-.5-1.6-.1-2.4l1 1.9 2-1.1-1.9 1.5.6 1 .5-.4h.3l.4.3h.3l1-.1h.6l-.6.3-.3.2.2.1.2.1.1.1.2.1.7-.2.3-.4-.5-.3h.5l.2-.3.1.4h.8l-1.4-1-2-1.6-.1.1-.1-.1h.5l-.1.1.9.4.9.5.9.6.8.6.3-.4.8-1.8.4-.7c.2.3.2.6.2.9A17 17 0 0196 9.7v-.1c-.4-1.8-.3-3.6-.2-5.4L97 9.9l.7 1.2h.7l.4-.3.1-.1-.5-1 .2.1.2.2.2.1.2.2.2-.2V8.4l.2 1.6c.1-.1.2-.3.4-.3h.1l-.3.3.4-.3v.1l-.5.6.3-.1.3.8h.9c.3-.4.6-.7 1-.9.1-.1.2-.3.4-.3l-4.2-3-1.1-.9 1.5.2 1.4.5 1.4.7 1.2.9.4.1.2-.3.2-1.8.4-1.7.5-1.7.7-1.6-1 7.7.3.2.2.3.3.2.2.3.4.5.6-1-.7-5.4c.7 1.3 1.1 2.7 1.4 4.1l.1-.2.3.5 1-1.4-1.2-3.8.5.6c.5.8.9 1.6 1.2 2.6l.2-.3-.1.4.2.5.2.7 1.1 2.3c.3-1.2.7-2.5 1.5-3.6l-.5-2c.5.2.9.7 1.2 1.2.1-.2.3-.4.5-.4l-.2.8 1 2.5.3-.9v.5l.1.5-.1.5v.5l.2 1.4h.2l.2-.8.1-.8.3-.8.2-.8.2-.6-1.4-4.2.6.7c.5.8.9 1.6 1.1 2.6l1-1.7.5-.6-1.1 3.3.3 1 .2.4.1.4.2.4.1.4h-.2l.1 1.1h.3V11l-.2-1h.1c.2.1.2.3.2.5v.5l.8-.6-.8-1.7-.2-.4 1.2 1.6 1-4.3V9c.2-.4.4-.8.8-1.2l-1-7.3c.8 1.5 1.2 3.2 1.5 4.8.2 1.1.4 2.3.4 3.4l.5-.2-.4.4v.7l.2-.3.3-.2.2-.3.3-.2c.6-.5 1.4-.9 2.2-1.2v1.4l-1 .7c.4.2.7.7.9 1.2v12.7H-.8V9.9h.4c.4 0 .4-.5.4-.8v-.2l.1-.2.1-.2.1-.1-.7-1.3v-.3l1 1.4v-.1h.9l-.3.5c.2.3.5.7.6 1.1H2l1.4.2.6-.2L2 4l.5.7c.7 1 1.1 2.1 1.5 3.2l.4 1.8h.2l-.1.1v.4l.8.2c.3-.1.6-.1.6-.6v-.2c0-.7-.1-1.5.6-2l.4-.3-.1-1.1.5 1.1h.1v.2l.2.7.3.6.1.7.2.7h.1l.1.1.1.1.5-.8-.1 1 .6.5h.1L9 7l.5.7.5.8.3.8.2.9.1.4.6-.7-.1-.2.3.2c.6-.5 1.3-.8 2-.8l-.5.7v.1l-.7.8.3.4H14l.5-.6-.5-.8.3.1.2.1.3.1.2.1.3-.2-4.2-3L10 6l1.5.2 1.4.5 1.3.7 1.2.9.5.1.1-.3.2-1.8q.1-.9.4-1.7l.6-1.8.7-1.6-1 7.7.3.2.2.3.3.2.2.3.4.6.4-.5-.3-.4h.1l.1.1h.1l.1.1L21.1 7l-1.4-3.8.5.6c.6.8.9 1.6 1.3 2.6l.2-.3-.2.4.2.5.7 2.6h.8c.3-1.2.7-2.2 1.3-3.2h.1l-.6-2c.5.2.9.7 1.2 1.2.2-.2.3-.4.5-.4l-.2.8.5 1.1.4 1.1.3 1.1.3 1.1.4-.1.6-2.4c.5-1.2.8-2.2 1.5-3.2l.5-.6-1.2 3.6.8 1.4.2.6h.7v-.3l-.5-.7v-.4l.5.7c0-.7 0-1.3.5-1.7.3-.3.6-.3 1-.3l-.9 2.7.1.2.2-.1 1-.1-.5.8.8.6h.5v-.3L33 9.5h.2L32 .5zm54.5 6.9l.2-.1h.1l-.3.1zM19.8 9.8h.1-.1zm.1 0l.2-.1-.1.1.3.2v-.1c.2-.6.5-1.2 1-1.6l.1-.2-.2-.7-1.4 2.4v-.1.1l-.3.4.4-.3-.1-.1zm88.2-1.7l.2.4.1-.1.1-.1.1-.1.1-.1-.2-.7zM92 8.9c-.1.4-.4.7-.6 1l.2.2c.8.2 1.5.4 2.2.8l.4.2.3-.5-1-.8-.2-.1 1.6.2.2-.2-1.6-1.1-1.1-1zm-67.9 2l.1.2.3-.2v.2h1l.4-.2v-.1l-.9-3zm87.2 0l1.2-2.3-.2-.8zM28 10h.5l.2-.3v.2l.7-.1-.7-1.7zm80.4-1.2l.6 1.3.2-.3-.5-1.6zm-87.8 1.5l.2-.1.2-.2.2-.1.2-.2.1.1-.7.9.2.4h1v-.7l-.4-.5.4.2-.6-1.9zm86.4-.7l.2 1.2v.3l.2-.4h-.2l.1-.4.2-.4.2-.5.2-.4v-.7zm8 1.5l1-1.4-.3.9.2.2-.1.3h.1v-.3l.5.3h.4l-.9-2.8zM6.8 9.7l.6.2-.2-1.5zm51.7-1v.9l.6.5.5-.5-.1-.1h.4l-1.3-.8zm-58 1l.3.3.2.2.2.3.2.2-.2-.8-.4-.6zm83.6-.1h-.3l-1 1h-.1l.3.5.4-.2.5-.2.4-.2.4-.2-.6-.8zm-24.2 0l.6.5.2-.2-.5-.4H60zm6.5.3l-.3-.2v-.2zm-13.8-.3zm33.3.5l.7-.1-.4-.3zm35.5 1.1h2l-.4-.7h.6l-.2-.8zm-73-1.5h.1zm.1 0l-.3.4h.2l.1.1.3-.3zm40.4 0h-.4l.2-.1zm-47.1.1l-.2.3.1.3.2-.1.1-.1.2-.1.2-.2-.6-.3zm-20.1.1l-.1-.1v-.1zm73.6.2c.3.1.5.3.8.3l-.8-.6zm-36.7-.2l-.3 1.3h.2l.6-.7-.5-.7zm1 .7h.1l.2.5.4-.7-.4-.6zm-13.5-.1l.2.1.2.1.2.1.2.1.3-.4-.4-.4h-.1l-.2-.2zm6.2-.1v.3l.1.1.1.2.1.1.1.1h.1l-.1-1.3zm26.5-.2l.4.1-.3-.4zm-55.7.2h.3V10zm12.2.1l.5-.2V10zm-35 .2l-.4.6h.9l-.3-1.2zm48.7-.1l.3.2.2-.3-.4-.4zm-46.6-.1l.1-.1-.4-.3zm58.5.1l.3.6h1.7l-.2-.1-1.6-1zm-41.1.2l.1.1v.2l.2-.3h.1l-.1.4c.1-.1.3-.2.3-.4h-.1v-.4l-.2-.3zm20.5.2l.3-.3h.1l-.2-.3v-.3zm67.7.2h.6l-.2-1zm4.8 0l.3-.6-.1-.4zM6.6 11h.2l.3.2.3-.5-.3-.2-.3-.3zm83.3-.7v.1h.3l-.4-.2zm-34.5 0v.1l.3.1-.2-.3zm21.1 0c-.2.2-.4.5-.7.6l.3.3h1.5l.3-.4-1.3-.6zm-22.1.1h.1v-.2zm-23.5.8h.3v-.9zm78.6-.6l.4.6-.3-.9zm-28.9.3h.3l.1-.1v-.4zm6.2-.2v.4l1-.3-.5-.4zm-58.1.3l-.2.2h1l.3-.8zm43.6.2h.7l-.3-.7zm-35.6-.6l.4.6h.2v-.5l-.6-.2zm63 .1l.3.5h.1l-.2-.7zm-76.7.2l.1.1v-.5zm63.6-.1l-.4.1.2.3h.2l.1-.5zm3.2.1v.3h.1l.2-.5zM3.3 11l-.2.2h1.4v-.1l-.8-.4zm64.7-.1l.3.3h.2l-.1-.5zm48 0v-.2zm-66 .4h.2l-.1-.4H50zm52.6 0h.1l.1-.4zm-11.5-.4v.4h.9l-.8-.4zm-32 .4h.5l-.2-.4zm1.4 0h.4l-.2-.4zm-13 0h.6l-.4-.3zm24.1 0h.1V11zm-27.1 0h.6l-.4-.2zm59.7 0h.2l-.2-.2zm-68.1 0h.4l-.2-.2zm1.8 0h.5l-.4-.2zm44.5 0h.1v-.2zm-15 0h.3l-.1-.1zm-46.6 0h.1l-.1-.1zm34.8-1.2v.1zm-14.9 1v.1zm-21.1.1v.1zm58.7 0v.1zm21 0v.1zm-39.4 0v.1h-.3.3z"/><path fill-rule="evenodd" class="a" d="M200 .5l-1.2 9h.2l-.2 1.3v.3h.5l.8-.6-.5-.8 1 .1.2.1.1-.2L200 7c.4 0 .7 0 1 .3.5.4.5 1 .5 1.7l.5-.7v.4l-.5.7v.3h.7l.2-.6.8-1.4-1.2-3.6.5.6c.7 1 1 2 1.5 3.2l.6 2.4.4.1.3-1.1.3-1.1.4-1.1.5-1.1-.2-.8c.2 0 .3.2.5.4.3-.5.7-1 1.2-1.2l-.6 2h.1c.6 1 1 2 1.3 3.2h.8l.7-2.6.2-.5-.2-.4.2.3c.4-1 .7-1.8 1.3-2.6l.5-.6-1.4 3.8 2.3 2.8.1-.1h.1l.1-.1h.1l-.3.4.4.5.4-.6.2-.3.3-.2.2-.3.3-.2-1-7.7.7 1.6.6 1.8q.3.8.4 1.7l.2 1.8.1.3.5-.1 1.2-.9 1.3-.7 1.4-.5L222 6l-1.1.9-4.2 3 .3.2.2-.1.3-.1.2-.1.3-.1-.5.8.5.6h1.5l.3-.4-.7-.8v-.1l-.5-.7c.7 0 1.4.3 2 .8l.3-.2-.1.2.6.7.1-.4.2-.9.3-.8.5-.8.5-.7-.6 4.1h.1l.6-.5-.1-1 .5.8.1-.1.1-.1h.1l.2-.7.1-.7.3-.6.2-.7v-.2h.1l.5-1.1-.1 1.1.4.3c.7.5.6 1.3.6 2v.2c0 .5.3.5.6.6l.8-.2v-.4l-.1-.1h.2l.4-1.8c.4-1.1.8-2.2 1.5-3.2l.5-.7-2 5.7.6.2 1.4-.2h.2c.1-.4.4-.8.6-1.1l-.3-.5h.9v.1l1-1.4v.3l-.7 1.3.1.1.1.2.1.2v.2c0 .3 0 .8.4.8h.4v13.5H107.6V10.7c.2-.5.5-1 .9-1.2l-1-.7V7.4c.8.3 1.6.7 2.2 1.2l.3.2.2.3.3.2.2.3v-.7l-.4-.4.5.2c0-1.1.2-2.3.4-3.4.3-1.6.7-3.3 1.5-4.8l-1 7.3c.4.4.6.8.8 1.2V5.6l1 4.3 1.2-1.6-.2.4-.8 1.7.8.6v-.5c0-.2 0-.4.2-.5h.1l-.2 1v.1h.3l.1-1.1h-.2l.1-.4.2-.4.1-.4.2-.4.3-1-1.1-3.3.5.6 1 1.7c.2-1 .6-1.8 1.1-2.6l.6-.7-1.4 4.2.2.6.2.8.3.8.1.8.2.8h.2l.2-1.4v-.5l-.1-.5.1-.5v-.5l.3.9 1-2.5-.2-.8c.2 0 .4.2.5.4.3-.5.7-1 1.2-1.2l-.5 2c.8 1.1 1.2 2.4 1.5 3.6l1.1-2.3.2-.7.2-.5-.1-.4.2.3c.3-1 .7-1.8 1.2-2.6l.5-.6-1.2 3.8 1 1.4.3-.5.1.2c.3-1.4.7-2.8 1.4-4.1l-.7 5.4.6 1 .4-.5.2-.3.3-.2.2-.3.3-.2-1-7.7.7 1.6.5 1.7.4 1.7.2 1.8.2.3.4-.1 1.2-.9 1.4-.7 1.4-.5 1.5-.2-1.1.9-4.2 3c.2 0 .3.2.4.3.4.2.7.5 1 .9h.9l.3-.8.3.1-.5-.6v-.1l.4.3-.3-.3h.1c.2 0 .3.2.4.3l.2-1.6v1.7l.2.2.2-.2.2-.1.2-.2.2-.1-.5 1 .1.1.4.3h.7l.7-1.2 1.2-5.7c.1 1.8.2 3.6-.2 5.4v.1a17 17 0 013.6-2.3c0-.3 0-.6.2-.9l.4.7.8 1.8.3.4.8-.6.9-.6.9-.5.9-.4-.1-.1h.5l-.1.1-.1-.1-2 1.6-1.4 1h.8l.1-.4.2.3h.5l-.5.3.3.4.7.2.2-.1.1-.1.2-.1.2-.1-.3-.2-.6-.3h.6l1 .1h.3l.4-.3h.3l.5.4.6-1-1.9-1.5 2 1.1 1-1.9c.4.8.2 1.7-.1 2.4l.3.2.4.3.3.2.3.3h.2l.2-.2v.3l.7.3.2-.4-.3-.4.4.2.1-.3.2.4v.1l.5.4-.1-.7.6.8.3-.2.2-.7 1.5-6.6a15 15 0 01-.3 5.6l-.6 1.2h.2l.1.2c.4 0 .8-.2 1.1-.3h.6v-.3l.3.2.4-.1h.4l.4-.1h.4l-1 .5.7.3.1-.2.5-.4 1-.2-.5.9.1-.1.5-.4.2-.6-1.7-3.5 1.2.6 1.1 1.5 1.2-1.5q.5-.5 1.2-.6L160 9.2l.1.3h.5c.4.3.6.8.6 1.3v.3h1.8v-.8l-1.9-.9h.7l1.4.3v-.5l.3-.9.3-1 .5-.8.6-.8-.8 4.1 1 .4.5-.3-.4.4.9.3-.2-1 .2-.1-.8-3.8.6.8.4.9.4.9.2.9.1.5.1.4.1.5v.5h.4l-1-5.4.7 1 .5 1.1.4 1.2.2 1.2.6-.8-.3 1.1c.3 0 .7.1.7-.3 0-.3 0-.7.4-.6.7 0 1.3-.8 2-1 .5-.3 1.1-.5 1.7-.4 0-.5 0-1 .2-1.5l1.3 4.1.5-.5-.4-.9.2.1.2.1.2.2.2.1.5-.3v-.2l.2.1h.2l.2.2.2-.1-.2.2h.2l.3-.1-.7-1.5.3.2.8 1.1h.1l-.1.2v.3l.4.9h-.2l.2.2v-.2l1-4.4v3h.1v.2l.1.1-.1-.3c.2 0 .3.2.5.3l.6-4.7.2 4.6.3-.3-.3.7v.5l.2.2 1.1-3.5c.2.6.2 1.2.2 1.8l.5-.6-1.1-2.1-.1-.4 1.6 2.1.3-.2 1.1-.7 1.2-.5 1.3-.3q.6-.2 1.3-.2l-4.3 3 .2.4v-.2l.2.3a5 5 0 011.7-.3l-.4.3h.2l.7.6.5-.2c-.4-.5-.6-1.1-.6-1.7l1.5 1h.2c0-.4.2-.8.5-1 .3-.3.7-.4 1-.4l-.5 1.6.4-.1h.5l.4-.1h.5l-.6.3.4.3.2-.3.1.5.5-.6-.1-.5-.6-1.7c.4 0 .7 0 1 .3.7.5.5 1.5.5 2.2 0 .4.3.5.5.6l.6-.2.2-.4-.3-.5h.6v.1h.3l.4.4h.5v-.2l.3.1h.5l-4-3h.5c1.6.2 3.1.8 4.4 1.7h.1v.1l.3.2.2.3.3.2.2.3c0-1.5 0-2.9.3-4.3.3-1.6.8-3.3 1.5-4.8zm-54.9 6.8l.2.1-.3-.1zm65.7.1l-.2.7.1.2c.5.4.8 1 1 1.6v.1l.3-.2-.1-.1.2.1h.1l-.1.1.4.3-.3-.4v-.1.1zm1.3 2.4l.1-.1v.1zm-88.7-2.4l-.2.7.2.1.1.1.1.1v.1l.2-.4zm16.1.2l-1.1 1-1.6 1.1.2.2 1.6-.2-.2.1-1 .8.3.5.4-.2c.7-.4 1.4-.6 2.2-.8l.2-.2c-.2-.3-.5-.6-.6-1zm67.4.2l-.9 3v.1l.4.2h1v-.2l.3.2.1-.2zm-87.3 0l-.2.8 1.2 2.3zm83.6.3l-.7 1.7.7.1v-.2l.2.3h.5zm-80 .1l-.5 1.6.2.3.6-1.3zm87.3 0l-.6 1.9.5-.3-.5.6v.7h1l.2-.4-.6-1 .3.1.2.2.2.1.1.2zm-86.5.1V9l.3.4.2.4.1.4.1.5h-.2l.2.4v-.3l.2-1.2zm-8 0l-.9 2.8h.4l.5-.4v.4h.1v-.4l.1-.1-.3-.9 1 1.4zm108.7.1l-.2 1.5.6-.2zm-51.4.3l-1.3.8h.4l-.1.1.5.5.6-.5v-.9zm57.8.6l-.4.6-.2.8.2-.3.2-.3.3-.2.2-.2zm-83.3.2c-.2.3-.5.5-.6.8l.5.2.4.2.4.2.4.2.3-.5h-.1l-1-1h-.3zm24.1 0h-.2l-.5.4.2.2.6-.5zm-6 .1l-.4.3.3-.4zm13.5-.1zm-33.6.1l-.4.3.7.1zm-37.2 0l-.2.8h.6l-.4.7h2zm74.9 0h.1zm-.3.2l.3.3.1-.1h.2l-.3-.4zm-39.7-.1h-.3l.1-.1zm46.8-.1l-.6.3.2.1.2.1.2.2.1.1.1-.3-.2-.3zm20.3.1l-.1.1v-.1zm-73.7 0l-.8.6c.3 0 .5-.2.8-.3zm36.7 0l-.5.7.6.7h.2l-.3-1.3zm-1.3 0l-.4.6.4.7.2-.5h.1zm13.4.1l-.2.2h-.1l-.4.4.3.4.2-.2.2-.1.2-.1h.2zm-6.2 0l-.1 1.3h.1l.1-.2.1-.1.1-.1.1-.1v-.3zm-26.2 0l-.3.4.4-.1zm55.5.1v.4h.3zm-12.4 0v.3l.5.2zm35.3.1l-.3 1.2h.9l-.4-.6zm-48.6 0l-.4.4.2.3.3-.2zm47 0l-.4.3.1.1zm-59 0l-1.6 1-.2.1h1.7l.3-.6zm41 0l-.2.3v.4h-.1c0 .2.2.3.3.4l-.1-.4h.1l.2.3v-.2l.1-.1zm-20.4 0v.3l-.2.3h.1l.3.3zm-67.9.1l-.2 1h.6zm-4.6 0l-.1.4.3.6zm106.2 0l-.3.3-.3.2.3.5.3-.2h.2zm-83 0l-.4.2h.3v-.1zm34.3 0l-.2.3.3-.1v-.1zm-21.1 0l-1.3.6.3.4h1.5l.3-.3c-.3-.1-.5-.4-.7-.6zm22.1 0v.2h.1zm23.3.1v.9h.3zm-78.4 0l-.3.9.4-.6zm28.6.1v.4l.1.1h.3zm-6.3 0l-.5.4 1 .3v-.4zm57.5 0l.3.8h1l-.2-.2zm-42.9.1l-.3.7h.7zm36 0l-.6.2v.5h.2l.4-.6zm-63.2 0l-.2.7h.1l.3-.5zm76.8 0v.5l.1-.1zm-63.6.2l.1.5h.2l.2-.3-.4-.1zm-3.4 0l.2.5h.1v-.3zm86.4 0l-.8.4v.1h1.4l-.2-.2zm-64.7 0l-.1.5h.2l.3-.3zm-47.6.1v-.1zm66-.1h-.1l-.1.4h.2zm-52.8 0l.1.4h.1zm11.6 0l-.8.4h.9v-.4zm31.8 0l-.2.4h.5zm-1.3 0l-.2.4h.4zm13 .1l-.4.3h.6zm-24 0v.3h.1zm27 .1l-.4.2h.6zm-59.5 0l-.2.2h.2zm67.9 0l-.2.2h.4zm-1.7 0l-.4.2h.5zm-44.5 0v.2h.1zm14.9.1l-.1.1h.3zm46.8 0l-.1.1h.1zm-34.8-1.1v.1zm14.9 1v.1zm21.1.1v.1zm-58.7 0v.1zm-21 0v.1zm39.4 0v.1h.3-.3z"/></svg>